<svg width="192" height="192" viewBox="0 0 192 192" fill="none" xmlns="http://www.w3.org/2000/svg">
<path d="M105.858 80.4534H98.0955L94.2144 95.9778H109.739L105.858 80.4534Z" fill="black"/>
<path d="M101.976 155.964C105.714 155.964 108.878 153.211 109.394 149.509L115.011 109.178C105.747 103.575 97.0575 103.575 88.9414 109.178L94.5591 149.509C95.075 153.211 98.2393 155.964 101.976 155.964Z" fill="black"/>
<path d="M67.3462 83.9806V71.9833C75.6153 71.9833 82.3427 65.2559 82.3427 56.9868H94.34C94.34 71.8724 82.2317 83.9806 67.3462 83.9806Z" fill="black"/>
<path d="M136.607 83.9806C121.721 83.9806 109.613 71.8724 109.613 56.9868H121.61C121.61 65.2559 128.337 71.9833 136.607 71.9833V83.9806Z" fill="black"/>
<path d="M153.364 48.8017C143.913 25.2872 123.859 10.2277 101.676 10.2277H89.6792C67.3104 10.2277 47.1791 25.4551 37.8152 49.2336C27.5216 55.0313 20.9951 66.0508 20.9951 77.982C20.9951 85.9302 23.8595 93.6114 29.0812 99.634C33.6942 104.895 40.5716 107.933 47.9889 107.975L50.4603 107.981C50.5833 107.981 50.7033 107.981 50.8292 107.984C53.4566 141.144 67.5084 182.958 89.6792 182.958H101.676C123.853 182.958 137.899 141.138 140.526 107.975H143.697C152.065 107.975 159.893 104.241 164.647 97.9754C168.777 92.5076 170.96 85.5942 170.96 77.982C170.96 65.6668 164.134 54.4824 153.364 48.8017ZM33.0763 79.8716C33.0223 79.2447 32.9923 78.6149 32.9923 77.982C32.9923 78.6149 33.0403 79.2417 33.0763 79.8716ZM155.085 90.732C152.593 94.0163 148.334 95.9778 143.697 95.9778H129.114L128.886 101.74C127.468 137.392 112.357 170.961 101.676 170.961C90.9959 170.961 75.8824 137.392 74.4668 101.74L74.2388 95.9268L59.7252 95.9508C55.8921 95.8549 52.3919 94.3432 50.1214 91.7518C46.8102 87.9307 44.9896 83.0448 44.9896 77.982C44.9896 69.8449 49.7615 62.3766 57.1428 58.9484L59.4222 57.8896L60.268 55.5232C67.4904 35.2989 83.7466 22.2249 101.676 22.2249C119.477 22.2249 135.689 35.1789 142.977 55.2293L143.865 57.6647L146.249 58.6905C153.972 62.0107 158.963 69.5809 158.963 77.982C158.963 83.0358 157.653 87.3278 155.085 90.732Z" fill="black"/>
</svg>
