<svg width="192" height="192" viewBox="0 0 192 192" fill="none" xmlns="http://www.w3.org/2000/svg">
<g clip-path="url(#clip0_3844_92)">
<path d="M161.962 50.9882C173.558 50.9882 182.958 60.388 182.958 71.9833C182.958 83.5786 173.558 92.9784 161.962 92.9784C150.367 92.9784 140.967 83.5786 140.967 71.9833C140.967 60.388 150.367 50.9882 161.962 50.9882ZM161.962 56.9872C153.68 56.9872 146.966 63.701 146.966 71.9833C146.966 80.2656 153.68 86.9803 161.962 86.9803C170.245 86.9803 176.958 80.2656 176.958 71.9833C176.958 63.7009 170.245 56.9872 161.962 56.9872Z" fill="black"/>
<path d="M38.9907 50.9882C50.586 50.9882 59.9858 60.388 59.9858 71.9833C59.9858 83.5786 50.586 92.9784 38.9907 92.9784C27.3954 92.9784 17.9956 83.5786 17.9956 71.9833C17.9956 60.388 27.3954 50.9882 38.9907 50.9882ZM38.9907 56.9872C30.7084 56.9872 23.9947 63.701 23.9946 71.9833C23.9946 80.2656 30.7084 86.9803 38.9907 86.9803C47.2731 86.9803 53.9868 80.2656 53.9868 71.9833C53.9868 63.7009 47.2731 56.9872 38.9907 56.9872Z" fill="black"/>
<path d="M137.968 101.976V86.9799H62.9854V101.976H0V155.964H20.9951V113.974H62.9854V158.963H74.9827V101.976H125.971V155.964H137.968V113.974H179.958V155.964H191.956V101.976H137.968Z" fill="black"/>
<path d="M100.477 77.982C117.843 77.982 131.969 63.8552 131.969 46.4892C131.969 31.9966 122.114 19.7924 108.764 16.1393C106.631 15.4104 104.355 14.9965 101.976 14.9965C101.721 14.9965 101.475 15.0265 101.226 15.0355C100.974 15.0295 100.729 14.9965 100.477 14.9965C83.1106 14.9965 68.9839 29.1233 68.9839 46.4892C68.9839 63.8552 83.1106 77.982 100.477 77.982Z" fill="black"/>
</g>
<defs>
<clipPath id="clip0_3844_92">
<rect width="191.956" height="191.956" fill="white"/>
</clipPath>
</defs>
</svg>
