<svg width="192" height="192" viewBox="0 0 192 192" fill="none" xmlns="http://www.w3.org/2000/svg">
<path d="M59.9831 65.9859L53.9849 77.9824L89.977 95.9785L95.9753 83.982L59.9831 65.9859Z" fill="black"/>
<path d="M143.971 65.984L107.975 83.9761L113.972 95.9739L149.968 77.9818L143.971 65.984Z" fill="black"/>
<path d="M74.9824 134.969C74.9824 119.972 90.4918 110.974 101.976 110.974C113.338 110.974 128.97 119.972 128.97 134.969H74.9824Z" fill="black"/>
<path d="M89.9791 11.9972C43.6728 11.9972 5.99854 49.6715 5.99854 95.9778C5.99854 142.284 43.6728 179.958 89.9791 179.958H101.976C148.283 179.958 185.957 142.284 185.957 95.9778C185.957 49.6715 148.283 11.9972 101.976 11.9972H89.9791ZM101.976 23.9944C141.666 23.9944 173.96 56.285 173.96 95.9778C173.96 135.671 141.666 167.961 101.976 167.961C62.2865 167.961 29.993 135.671 29.993 95.9778C29.993 56.285 62.2865 23.9944 101.976 23.9944Z" fill="black"/>
</svg>
