<svg width="192" height="192" viewBox="0 0 192 192" fill="none" xmlns="http://www.w3.org/2000/svg">
<path d="M170.886 144.558L150.874 124.546L160.205 115.215L151.723 106.733L141.666 116.79L132.561 104.118L173.96 74.9826L167.214 23.9944H110.974L92.8587 48.8706L74.9828 23.9944H21.7421L14.9967 74.9826L53.9007 102.36L48.8259 109.328L43.2321 103.734L34.7501 112.216L42.7493 120.215L19.7386 143.226L16.2384 139.726L7.75635 148.208L43.748 184.199L52.2301 175.717L47.3982 170.885L70.4089 147.878L79.7397 157.209L88.2217 148.727L80.3546 140.856L94.4783 130.917L113.884 144.573L106.733 151.723L115.216 160.205L127.546 147.875L147.557 167.883L142.725 172.715L151.207 181.197L156.039 176.365L179.365 153.04L184.197 148.208L175.715 139.726L170.886 144.558ZM133.166 125.287L126.598 131.855L109.868 120.083L122.858 110.944L133.166 125.287ZM65.9849 35.9916H68.9992L85.5074 58.9633L64.3323 88.0386L36.8796 68.72L41.2436 35.9916H65.9849ZM38.9161 162.4L32.5546 156.039L55.4873 133.103L61.8518 139.468L38.9161 162.4ZM64.7882 125.287L128.955 35.9916H156.711L161.075 68.72L71.3566 131.855L64.7882 125.287ZM156.039 159.401L136.103 139.468L142.467 133.103L162.401 153.04L156.039 159.401Z" fill="black"/>
</svg>
