<svg width="192" height="192" viewBox="0 0 192 192" fill="none" xmlns="http://www.w3.org/2000/svg">
<g clip-path="url(#clip0_3844_139)">
<path d="M113.088 31.1094C118.017 29.7885 120.943 24.7213 119.622 19.7915C118.301 14.8617 113.234 11.9361 108.304 13.257C103.374 14.578 100.449 19.6452 101.77 24.575C103.091 29.5048 108.158 32.4304 113.088 31.1094Z" fill="black"/>
<path d="M156.444 19.4923C159.965 18.5487 162.055 14.9293 161.111 11.408C160.167 7.88673 156.548 5.79704 153.027 6.74057C149.505 7.6841 147.416 11.3035 148.359 14.8248C149.303 18.3461 152.922 20.4358 156.444 19.4923Z" fill="black"/>
<path d="M134.674 19.8582C138.195 18.9147 140.285 15.2953 139.341 11.774C138.398 8.2527 134.778 6.16301 131.257 7.10654C127.736 8.05006 125.646 11.6695 126.59 15.1908C127.533 18.7121 131.153 20.8018 134.674 19.8582Z" fill="black"/>
<path d="M131.538 88.7668C133.725 89.594 136.135 89.9243 138.906 89.7694C140.786 89.6648 142.528 90.9939 143.046 92.9296L144.607 98.752C147.371 109.071 157.799 115.272 167.853 112.579L172.127 111.433L172.112 111.377C172.478 111.304 172.844 111.241 173.208 111.143C183.262 108.45 189.492 98.0552 187.091 87.9725L187.073 87.8979L176.683 49.4671L176.563 49.081C171.204 33.9686 155.183 25.2966 140.085 29.3421L134.73 30.7772C118.627 35.0919 109.136 52.0649 113.57 68.6141C117.035 81.5443 126.316 86.7905 131.538 88.7668ZM166.544 52.4326L176.834 90.4911C177.859 94.9673 174.962 99.7452 170.476 100.947C166.046 102.134 161.422 99.2813 160.165 94.5886L158.605 88.7662C156.8 82.0308 150.523 77.4174 143.681 77.7938C142.41 77.8639 141.416 77.7557 140.634 77.4596C136.561 75.9186 131.259 72.411 129.125 64.4488C126.198 53.5257 132.34 42.354 142.817 39.5467C152.571 36.9303 162.954 42.5864 166.544 52.4326Z" fill="black"/>
<path d="M80.3277 30.5429C85.2575 31.8638 90.3247 28.9382 91.6457 24.0084C92.9666 19.0786 90.041 14.0114 85.1112 12.6905C80.1814 11.3695 75.1142 14.2951 73.7933 19.2249C72.4724 24.1547 75.3979 29.2219 80.3277 30.5429Z" fill="black"/>
<path d="M36.9717 18.9258C40.493 19.8693 44.1125 17.7796 45.056 14.2584C45.9995 10.7371 43.9098 7.11763 40.3885 6.1741C36.8673 5.23058 33.2478 7.32026 32.3043 10.8415C31.3608 14.3628 33.4505 17.9823 36.9717 18.9258Z" fill="black"/>
<path d="M58.7408 19.2919C62.2621 20.2354 65.8815 18.1457 66.825 14.6244C67.7686 11.1032 65.6789 7.48372 62.1576 6.54019C58.6363 5.59667 55.0169 7.68635 54.0733 11.2076C53.1298 14.7289 55.2195 18.3484 58.7408 19.2919Z" fill="black"/>
<path d="M4.86103 89.7558C2.46839 99.838 8.85693 110.272 19.1042 113.018L29.4662 115.794L29.4683 115.787C39.6629 118.423 50.1488 112.28 52.8986 102.018L54.4587 96.1955C54.974 94.2725 56.7841 92.9644 58.7586 93.0834C61.5693 93.2543 64.0082 92.9457 66.214 92.1399C71.5517 90.1943 81.027 84.9976 84.5012 72.0316C88.9336 55.4792 79.1569 38.4297 62.7047 34.0214C62.2584 33.9018 52.5033 31.2879 52.5033 31.2879C37.084 27.1563 20.7838 35.748 15.3865 50.8719C15.283 51.1667 4.86103 89.7558 4.86103 89.7558ZM74.2979 69.295C72.1734 77.224 66.7626 80.6971 62.5946 82.2153C61.7736 82.5147 60.7279 82.6226 59.3939 82.5413C52.4295 82.1212 46.063 86.7131 44.2548 93.4613L42.6947 99.2838C41.4373 103.976 36.6551 106.787 32.0365 105.549C27.3362 104.29 24.2689 99.4253 25.2969 95.0785C25.2969 95.0785 35.5166 57.2443 35.5415 57.1307C39.0977 47.1744 49.826 41.5043 59.9712 44.2227C70.7974 47.1236 77.2248 58.3719 74.2979 69.295Z" fill="black"/>
<path d="M67.7403 177.02C64.3008 175.034 59.9026 176.213 57.9168 179.652C55.931 183.092 57.1095 187.49 60.549 189.476C63.9886 191.461 68.3867 190.283 70.3725 186.843C72.3583 183.404 71.1798 179.006 67.7403 177.02Z" fill="black"/>
<path d="M37.4909 159.555C35.0341 158.137 31.8926 158.979 30.4741 161.435C29.0557 163.892 29.8975 167.034 32.3543 168.452C34.8111 169.871 37.9526 169.029 39.3711 166.572C40.7895 164.115 39.9477 160.974 37.4909 159.555Z" fill="black"/>
<path d="M49.6716 171.333C47.2148 169.914 44.0732 170.756 42.6548 173.213C41.2364 175.67 42.0781 178.811 44.5349 180.23C46.9918 181.648 50.1333 180.806 51.5517 178.349C52.9702 175.893 52.1284 172.751 49.6716 171.333Z" fill="black"/>
<path d="M89.3145 135.14C88.5663 133.482 87.4223 131.974 85.8122 130.535C84.7202 129.558 84.493 127.868 85.2728 126.517L87.6181 122.455C91.7747 115.256 89.4492 106.105 82.4348 102.055L79.4526 100.334L79.43 100.373C79.1884 100.212 78.9526 100.045 78.6981 99.898C71.6838 95.8483 62.5362 98.14 58.3092 105.009L58.2777 105.06L42.8481 131.924L42.7016 132.203C37.3345 143.467 41.3784 157.055 51.9123 163.136L55.649 165.294C66.884 171.78 81.4462 167.663 88.1125 156.117C93.3211 147.096 91.101 139.102 89.3145 135.14ZM50.0591 135.872L65.3387 109.267C67.2381 106.24 71.461 105.205 74.5909 107.012C77.6817 108.796 78.6563 112.911 76.766 116.185L74.4206 120.247C71.7074 124.947 72.6227 130.939 76.5947 134.497C77.3329 135.158 77.8203 135.764 78.0875 136.357C79.4808 139.446 80.4684 144.294 77.2611 149.85C72.8611 157.471 63.3341 160.238 56.0244 156.018C49.2173 152.09 46.6163 143.265 50.0591 135.872Z" fill="black"/>
<path d="M122.353 175.963C118.913 177.949 117.735 182.347 119.721 185.786C121.706 189.226 126.105 190.404 129.544 188.418C132.984 186.433 134.162 182.034 132.176 178.595C130.191 175.155 125.792 173.977 122.353 175.963Z" fill="black"/>
<path d="M152.602 158.498C150.146 159.917 149.304 163.058 150.722 165.515C152.141 167.972 155.282 168.813 157.739 167.395C160.196 165.977 161.038 162.835 159.619 160.378C158.201 157.921 155.059 157.08 152.602 158.498Z" fill="black"/>
<path d="M140.422 170.276C137.965 171.694 137.123 174.835 138.542 177.292C139.96 179.749 143.102 180.591 145.558 179.172C148.015 177.754 148.857 174.612 147.439 172.156C146.02 169.699 142.879 168.857 140.422 170.276Z" fill="black"/>
<path d="M131.296 101.854C127.065 94.9896 117.808 92.7634 110.658 96.8912L103.429 101.065L103.432 101.071C96.3717 105.23 93.9817 114.38 98.1156 121.54L100.461 125.602C101.236 126.944 100.959 128.66 99.8074 129.681C98.1668 131.133 96.9946 132.645 96.2241 134.302C94.3576 138.31 92.0033 146.383 97.2263 155.43C103.895 166.977 118.657 170.979 130.136 164.352C130.447 164.172 137.253 160.242 137.253 160.242C148.011 154.031 152.253 140.334 146.901 129.042C146.796 128.823 131.296 101.854 131.296 101.854ZM104.347 151.321C101.153 145.789 102.219 140.901 103.677 137.772C103.964 137.155 104.48 136.521 105.259 135.831C109.322 132.23 110.299 126.2 107.58 121.492L105.235 117.43C103.345 114.156 104.43 109.978 107.652 108.117C110.931 106.224 115.296 107.213 117.122 110.17C117.122 110.17 132.317 136.612 132.366 136.689C135.888 144.124 133.105 153.147 126.026 157.234C118.473 161.595 108.747 158.942 104.347 151.321Z" fill="black"/>
</g>
<defs>
<clipPath id="clip0_3844_139">
<rect width="191.956" height="191.956" fill="white"/>
</clipPath>
</defs>
</svg>
