<svg width="192" height="192" viewBox="0 0 192 192" fill="none" xmlns="http://www.w3.org/2000/svg">
<path d="M163.462 22.4949C82.4209 22.4949 16.4961 88.4196 16.4961 169.461H40.4905C40.4905 95.0481 101.047 34.4921 175.459 34.4921V22.4949H163.462ZM175.459 45.0483C106.865 45.0483 51.0467 100.867 51.0467 169.461H63.0439C63.0439 107.465 113.464 57.0455 175.459 57.0455V45.0483ZM175.459 67.6016C119.282 67.6016 73.6001 113.284 73.6001 169.461H85.5973C85.5973 119.912 125.911 79.5989 175.459 79.5989V67.6016ZM175.459 90.1609C131.729 90.1609 96.1593 125.731 96.1593 169.461H108.157C108.157 132.359 138.358 102.158 175.459 102.158V90.1609Z" fill="black"/>
</svg>
