<svg width="961" height="895" viewBox="0 0 961 895" fill="none" xmlns="http://www.w3.org/2000/svg">
<path d="M22.1016 141.625H13.5L45.8984 7.5H54.5L22.1016 141.625ZM67.2666 141.625H58.665L90.1855 11.1328H98.7871L67.2666 141.625ZM31.3984 138.74H25.7559L55.8213 13.9951H61.4648L31.3984 138.74ZM40 138.74H34.3574L64.4229 13.9951H70.0664L40 138.74ZM48.6016 138.74H42.959L73.0244 13.9951H78.668L48.6016 138.74ZM56.5107 138.74H50.8672L80.9336 13.9951H86.5762L56.5107 138.74Z" fill="#D2DCEE"/>
<path d="M161.079 22.5287C166.022 15.9258 173.881 11.625 182.746 11.625H234.204V141.625H98.7874V11.625H139.412C148.277 11.625 156.136 15.9258 161.079 22.5287ZM212.537 22.4583H182.746C173.784 22.4583 166.496 29.7465 166.496 38.7083L166.504 39.1958H166.496V130.792H212.537V22.4583ZM109.621 130.792H155.662V38.7083C155.662 29.7465 148.374 22.4583 139.412 22.4583H109.621V130.792Z" fill="#D2DCEE"/>
<path d="M75.792 171.654C80.7347 165.051 88.5943 160.75 97.4587 160.75H148.917V290.75H13.5003V160.75H54.1253C62.9897 160.75 70.8493 165.051 75.792 171.654ZM127.25 171.583H97.4587C88.4968 171.583 81.2087 178.871 81.2087 187.833L81.2168 188.321H81.2087V279.917H127.25V171.583ZM24.3336 279.917H70.3753V187.833C70.3753 178.871 63.0872 171.583 54.1253 171.583H24.3336V279.917Z" fill="#D2DCEE"/>
<path d="M225.603 290.75H234.204L201.806 156.625H193.204L225.603 290.75ZM180.438 290.75H189.039L157.519 160.258H148.917L180.438 290.75ZM216.306 287.865H221.948L191.883 163.12H186.239L216.306 287.865ZM207.704 287.865H213.347L183.281 163.12H177.638L207.704 287.865ZM199.103 287.865H204.745L174.68 163.12H169.036L199.103 287.865ZM191.193 287.865H196.837L166.771 163.12H161.128L191.193 287.865Z" fill="#D2DCEE"/>
<path d="M173.23 320.779C168.288 314.176 160.428 309.875 151.564 309.875H100.105V439.875H235.522V309.875H194.897C186.033 309.875 178.173 314.176 173.23 320.779ZM121.772 320.708H151.564C160.526 320.708 167.814 327.996 167.814 336.958L167.806 337.446H167.814V429.042H121.772V320.708ZM224.689 429.042H178.647V336.958C178.647 327.996 185.935 320.708 194.897 320.708H224.689V429.042Z" fill="#D2DCEE"/>
<path d="M23.4199 439.875H14.8184L47.2168 305.75H55.8184L23.4199 439.875ZM68.585 439.875H59.9834L91.5039 309.383H100.105L68.585 439.875ZM32.7168 436.99H27.0742L57.1396 312.245H62.7832L32.7168 436.99ZM41.3184 436.99H35.6758L65.7412 312.245H71.3848L41.3184 436.99ZM49.9199 436.99H44.2773L74.3428 312.245H79.9863L49.9199 436.99ZM57.8291 436.99H52.1855L82.252 312.245H87.8945L57.8291 436.99Z" fill="#D2DCEE"/>
<path d="M75.792 469.904C80.7347 463.301 88.5943 459 97.4587 459H148.917V589H13.5003V459H54.1253C62.9897 459 70.8493 463.301 75.792 469.904ZM127.25 469.833H97.4587C88.4968 469.833 81.2087 477.121 81.2087 486.083L81.2168 486.571H81.2087V578.167H127.25V469.833ZM24.3336 578.167H70.3753V486.083C70.3753 477.121 63.0872 469.833 54.1253 469.833H24.3336V578.167Z" fill="#D2DCEE"/>
<path d="M225.603 589H234.204L201.806 454.875H193.204L225.603 589ZM180.438 589H189.039L157.519 458.508H148.917L180.438 589ZM216.306 586.115H221.948L191.883 461.37H186.239L216.306 586.115ZM207.704 586.115H213.347L183.281 461.37H177.638L207.704 586.115ZM199.103 586.115H204.745L174.68 461.37H169.036L199.103 586.115ZM191.193 586.115H196.837L166.771 461.37H161.128L191.193 586.115Z" fill="#D2DCEE"/>
<path d="M173.23 619.029C168.288 612.426 160.428 608.125 151.564 608.125H100.105V738.125H235.522V608.125H194.897C186.033 608.125 178.173 612.426 173.23 619.029ZM121.772 618.958H151.564C160.526 618.958 167.814 626.246 167.814 635.208L167.806 635.696H167.814V727.292H121.772V618.958ZM224.689 727.292H178.647V635.208C178.647 626.246 185.935 618.958 194.897 618.958H224.689V727.292Z" fill="#D2DCEE"/>
<path d="M23.4199 738.125H14.8184L47.2168 604H55.8184L23.4199 738.125ZM68.585 738.125H59.9834L91.5039 607.633H100.105L68.585 738.125ZM32.7168 735.24H27.0742L57.1396 610.495H62.7832L32.7168 735.24ZM41.3184 735.24H35.6758L65.7412 610.495H71.3848L41.3184 735.24ZM49.9199 735.24H44.2773L74.3428 610.495H79.9863L49.9199 735.24ZM57.8291 735.24H52.1855L82.252 610.495H87.8945L57.8291 735.24Z" fill="#D2DCEE"/>
<path d="M75.792 768.154C80.7347 761.551 88.5943 757.25 97.4587 757.25H148.917V887.25H13.5003V757.25H54.1253C62.9897 757.25 70.8493 761.551 75.792 768.154ZM127.25 768.083H97.4587C88.4968 768.083 81.2087 775.371 81.2087 784.333L81.2168 784.821H81.2087V876.417H127.25V768.083ZM24.3336 876.417H70.3753V784.333C70.3753 775.371 63.0872 768.083 54.1253 768.083H24.3336V876.417Z" fill="#D2DCEE"/>
<path d="M225.603 887.25H234.204L201.806 753.125H193.204L225.603 887.25ZM180.438 887.25H189.039L157.519 756.758H148.917L180.438 887.25ZM216.306 884.365H221.948L191.883 759.62H186.239L216.306 884.365ZM207.704 884.365H213.347L183.281 759.62H177.638L207.704 884.365ZM199.103 884.365H204.745L174.68 759.62H169.036L199.103 884.365ZM191.193 884.365H196.837L166.771 759.62H161.128L191.193 884.365Z" fill="#D2DCEE"/>
<path d="M259.124 141.625H250.522L282.921 7.5H291.522L259.124 141.625ZM304.289 141.625H295.688L327.208 11.1328H335.81L304.289 141.625ZM268.421 138.74H262.778L292.844 13.9951H298.487L268.421 138.74ZM277.022 138.74H271.38L301.445 13.9951H307.089L277.022 138.74ZM285.624 138.74H279.981L310.047 13.9951H315.69L285.624 138.74ZM293.533 138.74H287.89L317.956 13.9951H323.599L293.533 138.74Z" fill="#D2DCEE"/>
<path d="M398.102 22.5287C403.044 15.9258 410.904 11.625 419.768 11.625H471.227V141.625H335.81V11.625H376.435C385.299 11.625 393.159 15.9258 398.102 22.5287ZM449.56 22.4583H419.768C410.806 22.4583 403.518 29.7465 403.518 38.7083L403.526 39.1958H403.518V130.792H449.56V22.4583ZM346.643 130.792H392.685V38.7083C392.685 29.7465 385.397 22.4583 376.435 22.4583H346.643V130.792Z" fill="#D2DCEE"/>
<path d="M312.814 171.654C317.757 165.051 325.617 160.75 334.481 160.75H385.939V290.75H250.523V160.75H291.148C300.012 160.75 307.872 165.051 312.814 171.654ZM364.273 171.583H334.481C325.519 171.583 318.231 178.871 318.231 187.833L318.239 188.321H318.231V279.917H364.273V171.583ZM261.356 279.917H307.398V187.833C307.398 178.871 300.11 171.583 291.148 171.583H261.356V279.917Z" fill="#D2DCEE"/>
<path d="M462.625 290.75H471.227L438.828 156.625H430.227L462.625 290.75ZM417.46 290.75H426.062L394.541 160.258H385.939L417.46 290.75ZM453.328 287.865H458.971L428.905 163.12H423.262L453.328 287.865ZM444.727 287.865H450.369L420.304 163.12H414.66L444.727 287.865ZM436.125 287.865H441.768L411.702 163.12H406.059L436.125 287.865ZM428.216 287.865H433.859L403.793 163.12H398.15L428.216 287.865Z" fill="#D2DCEE"/>
<path d="M410.253 320.779C405.31 314.176 397.451 309.875 388.586 309.875H337.128V439.875H472.545V309.875H431.92C423.055 309.875 415.196 314.176 410.253 320.779ZM358.795 320.708H388.586C397.548 320.708 404.836 327.996 404.836 336.958L404.828 337.446H404.836V429.042H358.795V320.708ZM461.711 429.042H415.67V336.958C415.67 327.996 422.958 320.708 431.92 320.708H461.711V429.042Z" fill="#D2DCEE"/>
<path d="M260.442 439.875H251.841L284.239 305.75H292.841L260.442 439.875ZM305.607 439.875H297.006L328.526 309.383H337.128L305.607 439.875ZM269.739 436.99H264.097L294.162 312.245H299.806L269.739 436.99ZM278.341 436.99H272.698L302.764 312.245H308.407L278.341 436.99ZM286.942 436.99H281.3L311.365 312.245H317.009L286.942 436.99ZM294.852 436.99H289.208L319.274 312.245H324.917L294.852 436.99Z" fill="#D2DCEE"/>
<path d="M312.814 469.904C317.757 463.301 325.617 459 334.481 459H385.939V589H250.523V459H291.148C300.012 459 307.872 463.301 312.814 469.904ZM364.273 469.833H334.481C325.519 469.833 318.231 477.121 318.231 486.083L318.239 486.571H318.231V578.167H364.273V469.833ZM261.356 578.167H307.398V486.083C307.398 477.121 300.11 469.833 291.148 469.833H261.356V578.167Z" fill="#D2DCEE"/>
<path d="M462.625 589H471.227L438.828 454.875H430.227L462.625 589ZM417.46 589H426.062L394.541 458.508H385.939L417.46 589ZM453.328 586.115H458.971L428.905 461.37H423.262L453.328 586.115ZM444.727 586.115H450.369L420.304 461.37H414.66L444.727 586.115ZM436.125 586.115H441.768L411.702 461.37H406.059L436.125 586.115ZM428.216 586.115H433.859L403.793 461.37H398.15L428.216 586.115Z" fill="#D2DCEE"/>
<path d="M410.253 619.029C405.31 612.426 397.451 608.125 388.586 608.125H337.128V738.125H472.545V608.125H431.92C423.055 608.125 415.196 612.426 410.253 619.029ZM358.795 618.958H388.586C397.548 618.958 404.836 626.246 404.836 635.208L404.828 635.696H404.836V727.292H358.795V618.958ZM461.711 727.292H415.67V635.208C415.67 626.246 422.958 618.958 431.92 618.958H461.711V727.292Z" fill="#D2DCEE"/>
<path d="M260.442 738.125H251.841L284.239 604H292.841L260.442 738.125ZM305.607 738.125H297.006L328.526 607.633H337.128L305.607 738.125ZM269.739 735.24H264.097L294.162 610.495H299.806L269.739 735.24ZM278.341 735.24H272.698L302.764 610.495H308.407L278.341 735.24ZM286.942 735.24H281.3L311.365 610.495H317.009L286.942 735.24ZM294.852 735.24H289.208L319.274 610.495H324.917L294.852 735.24Z" fill="#D2DCEE"/>
<path d="M312.814 768.154C317.757 761.551 325.617 757.25 334.481 757.25H385.939V887.25H250.523V757.25H291.148C300.012 757.25 307.872 761.551 312.814 768.154ZM364.273 768.083H334.481C325.519 768.083 318.231 775.371 318.231 784.333L318.239 784.821H318.231V876.417H364.273V768.083ZM261.356 876.417H307.398V784.333C307.398 775.371 300.11 768.083 291.148 768.083H261.356V876.417Z" fill="#D2DCEE"/>
<path d="M462.625 887.25H471.227L438.828 753.125H430.227L462.625 887.25ZM417.46 887.25H426.062L394.541 756.758H385.939L417.46 887.25ZM453.328 884.365H458.971L428.905 759.62H423.262L453.328 884.365ZM444.727 884.365H450.369L420.304 759.62H414.66L444.727 884.365ZM436.125 884.365H441.768L411.702 759.62H406.059L436.125 884.365ZM428.216 884.365H433.859L403.793 759.62H398.15L428.216 884.365Z" fill="#D2DCEE"/>
<path d="M496.146 141.625H487.545L519.943 7.5H528.545L496.146 141.625ZM541.312 141.625H532.71L564.23 11.1328H572.832L541.312 141.625ZM505.443 138.74H499.801L529.866 13.9951H535.51L505.443 138.74ZM514.045 138.74H508.402L538.468 13.9951H544.111L514.045 138.74ZM522.646 138.74H517.004L547.069 13.9951H552.713L522.646 138.74ZM530.556 138.74H524.912L554.979 13.9951H560.621L530.556 138.74Z" fill="#D2DCEE"/>
<path d="M635.124 22.5287C640.067 15.9258 647.926 11.625 656.791 11.625H708.249V141.625H572.832V11.625H613.457C622.322 11.625 630.181 15.9258 635.124 22.5287ZM686.582 22.4583H656.791C647.829 22.4583 640.541 29.7465 640.541 38.7083L640.549 39.1958H640.541V130.792H686.582V22.4583ZM583.666 130.792H629.707V38.7083C629.707 29.7465 622.419 22.4583 613.457 22.4583H583.666V130.792Z" fill="#D2DCEE"/>
<path d="M549.837 171.654C554.78 165.051 562.639 160.75 571.504 160.75H622.962V290.75H487.545V160.75H528.17C537.035 160.75 544.894 165.051 549.837 171.654ZM601.295 171.583H571.504C562.542 171.583 555.254 178.871 555.254 187.833L555.262 188.321H555.254V279.917H601.295V171.583ZM498.379 279.917H544.42V187.833C544.42 178.871 537.132 171.583 528.17 171.583H498.379V279.917Z" fill="#D2DCEE"/>
<path d="M699.647 290.75H708.249L675.851 156.625H667.249L699.647 290.75ZM654.482 290.75H663.084L631.563 160.258H622.962L654.482 290.75ZM690.351 287.865H695.993L665.928 163.12H660.284L690.351 287.865ZM681.749 287.865H687.392L657.326 163.12H651.683L681.749 287.865ZM673.147 287.865H678.79L648.725 163.12H643.081L673.147 287.865ZM665.238 287.865H670.882L640.815 163.12H635.173L665.238 287.865Z" fill="#D2DCEE"/>
<path d="M647.275 320.779C642.333 314.176 634.473 309.875 625.609 309.875H574.15V439.875H709.567V309.875H668.942C660.078 309.875 652.218 314.176 647.275 320.779ZM595.817 320.708H625.609C634.571 320.708 641.859 327.996 641.859 336.958L641.851 337.446H641.859V429.042H595.817V320.708ZM698.734 429.042H652.692V336.958C652.692 327.996 659.98 320.708 668.942 320.708H698.734V429.042Z" fill="#D2DCEE"/>
<path d="M497.465 439.875H488.863L521.262 305.75H529.863L497.465 439.875ZM542.63 439.875H534.028L565.549 309.383H574.15L542.63 439.875ZM506.762 436.99H501.119L531.185 312.245H536.828L506.762 436.99ZM515.363 436.99H509.721L539.786 312.245H545.43L515.363 436.99ZM523.965 436.99H518.322L548.388 312.245H554.031L523.965 436.99ZM531.874 436.99H526.23L556.297 312.245H561.939L531.874 436.99Z" fill="#D2DCEE"/>
<path d="M549.837 469.904C554.78 463.301 562.639 459 571.504 459H622.962V589H487.545V459H528.17C537.035 459 544.894 463.301 549.837 469.904ZM601.295 469.833H571.504C562.542 469.833 555.254 477.121 555.254 486.083L555.262 486.571H555.254V578.167H601.295V469.833ZM498.379 578.167H544.42V486.083C544.42 477.121 537.132 469.833 528.17 469.833H498.379V578.167Z" fill="#D2DCEE"/>
<path d="M699.647 589H708.249L675.851 454.875H667.249L699.647 589ZM654.482 589H663.084L631.563 458.508H622.962L654.482 589ZM690.351 586.115H695.993L665.928 461.37H660.284L690.351 586.115ZM681.749 586.115H687.392L657.326 461.37H651.683L681.749 586.115ZM673.147 586.115H678.79L648.725 461.37H643.081L673.147 586.115ZM665.238 586.115H670.882L640.815 461.37H635.173L665.238 586.115Z" fill="#D2DCEE"/>
<path d="M647.275 619.029C642.333 612.426 634.473 608.125 625.609 608.125H574.15V738.125H709.567V608.125H668.942C660.078 608.125 652.218 612.426 647.275 619.029ZM595.817 618.958H625.609C634.571 618.958 641.859 626.246 641.859 635.208L641.851 635.696H641.859V727.292H595.817V618.958ZM698.734 727.292H652.692V635.208C652.692 626.246 659.98 618.958 668.942 618.958H698.734V727.292Z" fill="#D2DCEE"/>
<path d="M497.465 738.125H488.863L521.262 604H529.863L497.465 738.125ZM542.63 738.125H534.028L565.549 607.633H574.15L542.63 738.125ZM506.762 735.24H501.119L531.185 610.495H536.828L506.762 735.24ZM515.363 735.24H509.721L539.786 610.495H545.43L515.363 735.24ZM523.965 735.24H518.322L548.388 610.495H554.031L523.965 735.24ZM531.874 735.24H526.23L556.297 610.495H561.939L531.874 735.24Z" fill="#D2DCEE"/>
<path d="M549.837 768.154C554.78 761.551 562.639 757.25 571.504 757.25H622.962V887.25H487.545V757.25H528.17C537.035 757.25 544.894 761.551 549.837 768.154ZM601.295 768.083H571.504C562.542 768.083 555.254 775.371 555.254 784.333L555.262 784.821H555.254V876.417H601.295V768.083ZM498.379 876.417H544.42V784.333C544.42 775.371 537.132 768.083 528.17 768.083H498.379V876.417Z" fill="#D2DCEE"/>
<path d="M699.647 887.25H708.249L675.851 753.125H667.249L699.647 887.25ZM654.482 887.25H663.084L631.563 756.758H622.962L654.482 887.25ZM690.351 884.365H695.993L665.928 759.62H660.284L690.351 884.365ZM681.749 884.365H687.392L657.326 759.62H651.683L681.749 884.365ZM673.147 884.365H678.79L648.725 759.62H643.081L673.147 884.365ZM665.238 884.365H670.882L640.815 759.62H635.173L665.238 884.365Z" fill="#D2DCEE"/>
<path d="M733.169 141.625H724.567L756.966 7.5H765.567L733.169 141.625ZM778.334 141.625H769.732L801.253 11.1328H809.854L778.334 141.625ZM742.466 138.74H736.823L766.889 13.9951H772.532L742.466 138.74ZM751.067 138.74H745.425L775.49 13.9951H781.134L751.067 138.74ZM759.669 138.74H754.026L784.092 13.9951H789.735L759.669 138.74ZM767.578 138.74H761.935L792.001 13.9951H797.644L767.578 138.74Z" fill="#D2DCEE"/>
<path d="M872.146 22.5287C877.089 15.9258 884.949 11.625 893.813 11.625H945.271V141.625H809.855V11.625H850.48C859.344 11.625 867.204 15.9258 872.146 22.5287ZM923.605 22.4583H893.813C884.851 22.4583 877.563 29.7465 877.563 38.7083L877.571 39.1958H877.563V130.792H923.605V22.4583ZM820.688 130.792H866.73V38.7083C866.73 29.7465 859.442 22.4583 850.48 22.4583H820.688V130.792Z" fill="#D2DCEE"/>
<path d="M786.859 171.654C791.802 165.051 799.662 160.75 808.526 160.75H859.984V290.75H724.568V160.75H765.193C774.057 160.75 781.917 165.051 786.859 171.654ZM838.318 171.583H808.526C799.564 171.583 792.276 178.871 792.276 187.833L792.284 188.321H792.276V279.917H838.318V171.583ZM735.401 279.917H781.443V187.833C781.443 178.871 774.155 171.583 765.193 171.583H735.401V279.917Z" fill="#D2DCEE"/>
<path d="M936.67 290.75H945.271L912.873 156.625H904.271L936.67 290.75ZM891.505 290.75H900.106L868.586 160.258H859.984L891.505 290.75ZM927.373 287.865H933.016L902.95 163.12H897.307L927.373 287.865ZM918.771 287.865H924.414L894.349 163.12H888.705L918.771 287.865ZM910.17 287.865H915.812L885.747 163.12H880.104L910.17 287.865ZM902.261 287.865H907.904L877.838 163.12H872.195L902.261 287.865Z" fill="#D2DCEE"/>
<path d="M884.298 320.779C879.355 314.176 871.496 309.875 862.631 309.875H811.173V439.875H946.59V309.875H905.965C897.1 309.875 889.241 314.176 884.298 320.779ZM832.84 320.708H862.631C871.593 320.708 878.881 327.996 878.881 336.958L878.873 337.446H878.881V429.042H832.84V320.708ZM935.756 429.042H889.715V336.958C889.715 327.996 897.003 320.708 905.965 320.708H935.756V429.042Z" fill="#D2DCEE"/>
<path d="M734.487 439.875H725.886L758.284 305.75H766.886L734.487 439.875ZM779.652 439.875H771.051L802.571 309.383H811.173L779.652 439.875ZM743.784 436.99H738.142L768.207 312.245H773.851L743.784 436.99ZM752.386 436.99H746.743L776.809 312.245H782.452L752.386 436.99ZM760.987 436.99H755.345L785.41 312.245H791.054L760.987 436.99ZM768.896 436.99H763.253L793.319 312.245H798.962L768.896 436.99Z" fill="#D2DCEE"/>
<path d="M786.859 469.904C791.802 463.301 799.662 459 808.526 459H859.984V589H724.568V459H765.193C774.057 459 781.917 463.301 786.859 469.904ZM838.318 469.833H808.526C799.564 469.833 792.276 477.121 792.276 486.083L792.284 486.571H792.276V578.167H838.318V469.833ZM735.401 578.167H781.443V486.083C781.443 477.121 774.155 469.833 765.193 469.833H735.401V578.167Z" fill="#D2DCEE"/>
<path d="M936.67 589H945.271L912.873 454.875H904.271L936.67 589ZM891.505 589H900.106L868.586 458.508H859.984L891.505 589ZM927.373 586.115H933.016L902.95 461.37H897.307L927.373 586.115ZM918.771 586.115H924.414L894.349 461.37H888.705L918.771 586.115ZM910.17 586.115H915.812L885.747 461.37H880.104L910.17 586.115ZM902.261 586.115H907.904L877.838 461.37H872.195L902.261 586.115Z" fill="#D2DCEE"/>
<path d="M884.298 619.029C879.355 612.426 871.496 608.125 862.631 608.125H811.173V738.125H946.59V608.125H905.965C897.1 608.125 889.241 612.426 884.298 619.029ZM832.84 618.958H862.631C871.593 618.958 878.881 626.246 878.881 635.208L878.873 635.696H878.881V727.292H832.84V618.958ZM935.756 727.292H889.715V635.208C889.715 626.246 897.003 618.958 905.965 618.958H935.756V727.292Z" fill="#D2DCEE"/>
<path d="M734.487 738.125H725.886L758.284 604H766.886L734.487 738.125ZM779.652 738.125H771.051L802.571 607.633H811.173L779.652 738.125ZM743.784 735.24H738.142L768.207 610.495H773.851L743.784 735.24ZM752.386 735.24H746.743L776.809 610.495H782.452L752.386 735.24ZM760.987 735.24H755.345L785.41 610.495H791.054L760.987 735.24ZM768.896 735.24H763.253L793.319 610.495H798.962L768.896 735.24Z" fill="#D2DCEE"/>
<path d="M786.859 768.154C791.802 761.551 799.662 757.25 808.526 757.25H859.984V887.25H724.568V757.25H765.193C774.057 757.25 781.917 761.551 786.859 768.154ZM838.318 768.083H808.526C799.564 768.083 792.276 775.371 792.276 784.333L792.284 784.821H792.276V876.417H838.318V768.083ZM735.401 876.417H781.443V784.333C781.443 775.371 774.155 768.083 765.193 768.083H735.401V876.417Z" fill="#D2DCEE"/>
<path d="M936.67 887.25H945.271L912.873 753.125H904.271L936.67 887.25ZM891.505 887.25H900.106L868.586 756.758H859.984L891.505 887.25ZM927.373 884.365H933.016L902.95 759.62H897.307L927.373 884.365ZM918.771 884.365H924.414L894.349 759.62H888.705L918.771 884.365ZM910.17 884.365H915.812L885.747 759.62H880.104L910.17 884.365ZM902.261 884.365H907.904L877.838 759.62H872.195L902.261 884.365Z" fill="#D2DCEE"/>
</svg>
