<svg width="192" height="192" viewBox="0 0 192 192" fill="none" xmlns="http://www.w3.org/2000/svg">
<path d="M136.463 25.854C132.711 25.854 129.063 26.2889 125.677 27.1257C112.708 30.206 102.154 38.4661 95.966 49.4316C89.7845 38.4691 79.2389 30.209 66.3059 27.1407C64.7132 26.7448 56.3062 25.854 55.4634 25.854C53.4479 25.854 49.4648 25.854 49.4648 25.854C40.4129 25.854 31.6069 28.4844 23.9827 33.4723C10.8457 42.1313 2.99951 56.6839 2.99951 72.4033C2.99951 74.3168 3.30844 91.4039 14.001 102.465L95.939 179.919L95.975 179.958L171.977 102.438L172.346 102.03C176.857 96.5267 180.091 90.0122 181.689 83.2038C182.544 79.5986 182.958 76.0624 182.958 72.4033C182.958 46.7352 162.098 25.854 136.463 25.854ZM163.237 94.2232L99.3582 158.99L34.5552 94.0583C27.0809 86.3231 26.994 72.5412 26.994 72.4033C26.994 60.733 32.8216 49.9235 42.5664 43.5019C52.0352 37.2604 61.429 38.3131 63.4775 38.799C78.534 42.3652 89.1786 55.3822 89.8954 70.7566L83.9808 89.9792H92.9787L77.9822 125.971L122.819 74.5028L107.975 74.9827L124.357 40.0767C125.794 39.5399 130.233 37.8483 136.46 37.8483C155.484 37.8513 170.961 53.3517 170.961 72.4033C170.961 75.3966 170.001 85.8402 163.237 94.2232Z" fill="black"/>
</svg>
