<svg width="192" height="192" viewBox="0 0 192 192" fill="none" xmlns="http://www.w3.org/2000/svg">
<g clip-path="url(#clip0_3844_132)">
<path d="M53.9873 167.961H65.9845L74.9825 131.97H125.971L134.969 95.9779H170.96L173.96 83.9807H74.9825L53.9873 167.961ZM83.9804 95.9779H85.48L89.979 113.974H101.976L97.4773 95.9779H122.971L116.973 119.972H77.9818L83.9804 95.9779Z" fill="black"/>
<path d="M35.9917 47.989H11.9972L0 95.9779H23.9945L5.99861 167.961H29.9931L50.9882 83.9807H26.9938L35.9917 47.989Z" fill="black"/>
<path d="M173.96 35.9917L170.961 47.9889H56.9869L50.9883 71.9834H92.9786L95.9779 59.9862H179.958L185.957 35.9917H173.96Z" fill="black"/>
<path d="M179.959 59.9862L173.96 83.9807H185.957L191.956 59.9862H179.959Z" fill="black"/>
</g>
<defs>
<clipPath id="clip0_3844_132">
<rect width="191.956" height="191.956" fill="white"/>
</clipPath>
</defs>
</svg>
