<svg width="192" height="192" viewBox="0 0 192 192" fill="none" xmlns="http://www.w3.org/2000/svg">
<g clip-path="url(#clip0_3844_102)">
<path d="M147.446 41.9903H147.326C147.326 19.8554 129.69 1.55964 107.435 0H104.136C102.696 0 101.287 0 101.287 0C79.6016 0 61.5758 15.8063 58.7264 36.2616C44.8096 38.1212 33.7122 49.0687 31.2228 63.0754C13.7668 64.3651 0 78.6118 0 95.9778C0 113.914 14.9365 128.73 33.2923 128.97H147.446C172.01 128.97 191.956 109.475 191.956 85.4802C191.956 61.4858 172.01 41.9903 147.446 41.9903ZM147.446 116.973H39.5908C27.9235 116.823 18.4157 107.405 18.4157 95.9778C18.4157 84.4005 28.0435 74.9827 39.8908 74.9827H49.0987V68.9841C49.0987 57.4067 58.0666 47.9889 69.074 47.9889H76.7223V41.9903C76.7223 25.974 89.6793 12.867 105.906 12.0872C122.102 12.867 135.059 25.974 135.059 41.9903V53.9875H147.326C165.112 53.9875 179.688 68.1143 179.688 85.4802C179.688 102.846 165.232 116.973 147.446 116.973Z" fill="black"/>
<path d="M48.3789 167.961H60.3761L66.3747 143.967H54.3775L48.3789 167.961Z" fill="black"/>
<path d="M126.361 167.961H138.358L144.357 143.967H132.359L126.361 167.961Z" fill="black"/>
<path d="M87.3696 167.961H99.3669L105.365 143.967H93.3682L87.3696 167.961Z" fill="black"/>
</g>
<defs>
<clipPath id="clip0_3844_102">
<rect width="191.956" height="191.956" fill="white"/>
</clipPath>
</defs>
</svg>
