<svg width="192" height="192" viewBox="0 0 192 192" fill="none" xmlns="http://www.w3.org/2000/svg">
<g clip-path="url(#clip0_3844_111)">
<path d="M77.9823 59.9861C56.4772 59.9861 39.0513 77.2921 39.0513 98.6472C39.0513 112.324 46.1896 124.321 57.0171 131.19V146.966H98.9474V131.19C109.775 124.321 116.913 112.324 116.913 98.6472C116.913 77.2921 99.4873 59.9861 77.9823 59.9861ZM64.2454 110.105C60.0464 110.105 56.6272 106.685 56.6272 102.486C56.6272 98.2573 60.0464 94.8381 64.2454 94.8381C68.4745 94.8381 71.8937 98.2573 71.8937 102.486C71.8937 106.685 68.4745 110.105 64.2454 110.105ZM72.2236 124.111L75.1029 112.594H80.8616L83.7409 124.111H72.2236ZM91.7191 110.105C87.4901 110.105 84.0709 106.685 84.0709 102.486C84.0709 98.2573 87.4901 94.8381 91.7191 94.8381C95.9181 94.8381 99.3373 98.2573 99.3373 102.486C99.3373 106.685 95.9181 110.105 91.7191 110.105Z" fill="black"/>
<path d="M77.982 32.9924C76.5963 32.9924 65.9847 32.9924 65.9847 32.9924C29.6002 32.9924 0 62.2716 0 98.2603V176.959H23.9945V98.2603C23.9945 68.8881 48.2139 44.9896 77.982 44.9896C107.75 44.9896 131.969 68.8881 131.969 98.2603V176.959H143.967V98.2603C143.967 62.2716 114.367 32.9924 77.982 32.9924Z" fill="black"/>
<path d="M178.099 33.2923C166.672 17.7559 149.906 7.55825 130.92 4.58894C116.763 2.36945 102.637 4.34899 89.9795 10.1976V26.8138C114.934 17.7559 143.247 26.034 159.144 47.629C161.273 50.5083 169.971 65.3249 171.561 68.6241L172.325 68.2492L143.967 176.959H155.964L191.956 38.991H181.257C180.253 36.8135 179.212 34.801 178.099 33.2923Z" fill="black"/>
</g>
<defs>
<clipPath id="clip0_3844_111">
<rect width="191.956" height="191.956" fill="white"/>
</clipPath>
</defs>
</svg>
