<svg width="195" height="192" viewBox="0 0 195 192" fill="none" xmlns="http://www.w3.org/2000/svg">
<path d="M124.551 38.254V17.9962H133.665V5.99872H60.7568V17.9962H69.8703V37.5162L48.6055 121.499V185.961H72.9081V124.45L94.1729 40.4675V39.7297V17.9962H112.4V39.7297L133.665 123.712V185.961H145.816V155.967V143.97V122.237L124.551 38.254Z" fill="black"/>
<path d="M75.7257 135.626H84.6059L89.2325 143.559L93.7348 135.626H102.54L94.4064 148.103L103.311 161.389H94.2572L89.1082 153.113L83.9592 161.389H74.9546L83.9592 147.955L75.7754 135.602L75.7257 135.626Z" fill="black"/>
<path d="M104.107 135.626H112.987L117.614 143.559L122.116 135.626H130.922L122.788 148.103L131.693 161.389H122.639L117.49 153.113L112.34 161.389H103.336L112.34 147.955L104.157 135.602L104.107 135.626Z" fill="black"/>
</svg>
