<svg width="192" height="192" viewBox="0 0 192 192" fill="none" xmlns="http://www.w3.org/2000/svg">
<g clip-path="url(#clip0_3844_122)">
<path d="M11.9971 155.964H59.986V191.956H71.9832L107.975 155.964H179.958V23.9944H167.961V143.967H101.976L83.9804 161.963V143.967H35.9915V23.9944H11.9971V155.964Z" fill="black"/>
<path d="M79.3945 68.5325L77.587 75.8988H72.5897L71.2075 81.4888H76.2048L74.4504 88.855H69.4L67.3267 97.2139H57.6511L59.7245 88.855H53.8766L51.8033 97.2139H42.1278L44.2011 88.855H38.9912L40.7987 81.4888H46.0618L47.444 75.8988H42.1809L44.0416 68.5325H49.3047L51.2717 60.6438H60.894L58.8739 68.5325H64.7217L66.7419 60.6438H76.3643L74.3973 68.5325H79.3945ZM57.0664 75.8988L55.6841 81.4888H61.532L62.9142 75.8988H57.0664Z" fill="black"/>
<path d="M114.403 87.34C114.403 92.8255 110.257 96.4303 102.761 97.3706V100.871H94.7864V97.4751C87.3969 96.6392 82.5591 93.0345 83.3565 83.7352H93.4042C93.0852 88.1236 94.6801 89.8999 98.7204 89.8999C101.804 89.8999 103.505 89.064 103.505 87.34C103.505 85.5637 102.867 84.4666 97.1787 82.6381C85.0046 78.7721 83.4097 75.3763 83.4097 69.8386C83.4097 65.3457 87.1311 61.4275 94.7864 60.4349V56.9868H102.761V60.4871C111.107 61.532 114.031 66.1293 113.712 72.9209H103.877C103.93 69.1594 101.91 67.9056 99.0394 67.9056C95.8497 67.9056 94.3611 68.6892 94.3611 70.361C94.3611 71.6671 94.8927 72.5552 100.368 74.1225C112.383 77.5705 114.403 81.2275 114.403 87.34Z" fill="black"/>
<path d="M142.102 60.3304C155.765 60.3304 164.962 68.7937 164.962 81.9067C164.962 93.4524 158.955 98.4677 152.416 98.4677C147.525 98.4677 143.697 96.169 143.059 92.4075C141.943 93.7659 140.295 94.5495 137.956 94.5495C133.65 94.5495 129.024 91.4672 131.045 81.0708C132.533 73.4433 137.584 71.7716 140.561 71.7716C143.272 71.7716 144.76 72.7642 145.558 74.018L145.877 72.3462H153.001L149.811 86.7653C148.801 91.2582 150.024 92.1986 152.15 92.1986C155.233 92.1986 157.466 89.0117 157.466 81.9067C157.466 73.2344 152.15 66.704 142.262 66.704C132.958 66.704 126.313 74.1225 126.313 84.2054C126.313 94.5495 133.862 100.662 144.92 98.9902L145.505 104.476C128.759 107.349 118.498 97.4751 118.498 84.2054C118.498 70.9879 127.749 60.3304 142.102 60.3304ZM143.75 82.7426C144.441 79.3468 143.91 77.5183 141.89 77.5183C140.295 77.5183 138.913 79.2946 138.328 82.5336C137.584 86.5563 138.328 88.5416 140.401 88.5416C141.837 88.5416 143.006 86.5041 143.75 82.7426Z" fill="black"/>
</g>
<defs>
<clipPath id="clip0_3844_122">
<rect width="191.956" height="191.956" fill="white"/>
</clipPath>
</defs>
</svg>
